<svg width="22" height="22" viewBox="0 0 22 22" fill="none" xmlns="http://www.w3.org/2000/svg">
<path d="M18.3333 0H3.66667C1.64162 0 0 1.64162 0 3.66667V18.3333C0 20.3584 1.64162 22 3.66667 22H18.3333C20.3584 22 22 20.3584 22 18.3333V3.66667C22 1.64162 20.3584 0 18.3333 0Z" fill="#FAF7F5"/>
<path d="M16.0679 8.89889C17.7061 8.89889 19.0341 7.57084 19.0341 5.9326C19.0341 4.29436 17.7061 2.96631 16.0679 2.96631C14.4296 2.96631 13.1016 4.29436 13.1016 5.9326C13.1016 7.57084 14.4296 8.89889 16.0679 8.89889Z" fill="#999999"/>
<path d="M16.6687 11.1587C16.5361 10.9925 16.369 10.8571 16.1791 10.762C15.9892 10.6668 15.7809 10.6141 15.5687 10.6075C15.3567 10.5972 15.1452 10.6348 14.9497 10.7175C14.7542 10.8001 14.5798 10.9258 14.4393 11.0852L12.43 13.2902L9.12267 8.53478C8.98708 8.34142 8.80697 8.18367 8.59761 8.07491C8.38825 7.96616 8.15581 7.9096 7.92 7.91004C7.68419 7.9096 7.45175 7.96616 7.24239 8.07491C7.03303 8.18367 6.85292 8.34142 6.71733 8.53478L0 18.1191V18.3249C0 19.2996 0.386308 20.2344 1.07394 20.9235C1.41442 21.2648 1.81863 21.5355 2.26349 21.7202C2.70835 21.9049 3.18515 21.9999 3.66667 21.9999H18.3333C19.3058 21.9999 20.2384 21.6127 20.9261 20.9235C21.6137 20.2344 22 19.2996 22 18.3249V17.8325L16.6687 11.1587Z" fill="#999999"/>
</svg>
