<?xml version="1.0" encoding="utf-8"?>
<svg width="170" height="200" viewBox="0 0 170 200" fill="none" xmlns="http://www.w3.org/2000/svg" xmlns:bx="https://boxy-svg.com">
  <defs/>
  <path d="M 24.546 113.171 C 30.292 113.171 36.043 113.171 41.789 113.171 C 42.002 119.573 42.36 125.967 42.866 132.337 C 43.103 135.291 44.318 136.759 46.468 136.759 L 48.504 136.759 C 50.654 136.759 51.596 135.291 51.375 132.337 C 49.134 102.5 49.908 72.145 53.701 42.661 L 70.591 42.661 C 67.072 73.251 66.461 104.776 68.75 135.693 C 69.73 148.767 65.636 155.202 55.707 155.211 L 43.307 155.211 C 33.444 155.202 27.353 148.767 26.04 135.693 C 25.321 128.217 24.824 120.7 24.546 113.171 Z" fill="#05B59D" style=""/>
  <path d="M 94.902 41.638 L 127.618 41.638 C 138.07 41.642 143.84 47.926 144.453 60.677 C 144.964 71.868 145.237 83.14 145.273 94.418 C 145.293 107.396 139.727 113.869 129.043 113.869 L 113.752 113.869 C 113.578 126.822 113.205 139.724 112.633 152.459 L 94.897 152.459 C 96.002 115.968 96.002 78.125 94.897 41.635 L 94.902 41.638 Z M 127.002 91.086 C 126.949 82.089 126.781 73.104 126.487 64.162 C 126.393 61.254 125.246 59.806 123.051 59.806 L 113.316 59.806 C 113.67 71.63 113.851 83.552 113.867 95.473 L 123.699 95.473 C 125.911 95.473 127.014 94.009 126.998 91.086 L 127.002 91.086 Z" fill="#05B59D" style=""/>
  <path d="M 96.437 5.589 L 110.193 20.446 L 82.68 20.446 L 96.437 5.589 Z" style=" fill: rgb(26, 181, 157); fill-rule: nonzero; paint-order: stroke;" bx:shape="triangle 82.68 5.589 27.513 14.857 0.5 0 1@5a36b754"/>
  <path d="M 67.822 -192.126 L 81.578 -177.269 L 54.065 -177.269 L 67.822 -192.126 Z" style="fill: rgb(26, 181, 157); fill-rule: nonzero; paint-order: stroke;" transform="matrix(1, 0, 0, -1, 0, 0)" bx:shape="triangle 54.065 -192.126 27.513 14.857 0.5 0 1@58d4d44b"/>
</svg>